<svg width="89" height="89" viewBox="0 0 89 89" fill="none" xmlns="http://www.w3.org/2000/svg">
<path d="M44.5 8.65156e-08C35.6986 1.03624e-07 27.0949 2.60997 19.7768 7.49981C12.4588 12.3897 6.75513 19.3398 3.38712 27.4712C0.0191018 35.6027 -0.86199 44.5503 0.855276 53.1826C2.57254 61.8148 6.81104 69.7439 13.0347 75.9672C19.2585 82.1905 27.1878 86.4285 35.8202 88.1453C44.4525 89.862 53.4001 88.9804 61.5314 85.6118C69.6626 82.2433 76.6123 76.5392 81.5017 69.2208C86.3911 61.9025 89.0005 53.2986 89 44.4972C89 38.6535 87.8489 32.8671 85.6126 27.4683C83.3762 22.0694 80.0983 17.1639 75.9661 13.032C71.8338 8.89997 66.9282 5.62239 61.5292 3.38636C56.1302 1.15033 50.3437 -0.000364302 44.5 8.65156e-08V8.65156e-08ZM36.8808 58.7312C36.7175 58.8402 36.5277 58.9028 36.3315 58.9124C36.1354 58.9219 35.9404 58.8781 35.7673 58.7855C35.5941 58.693 35.4493 58.5552 35.3483 58.3868C35.2473 58.2184 35.1939 58.0258 35.1938 57.8295V31.1733C35.1939 30.977 35.2473 30.7844 35.3483 30.616C35.4493 30.4476 35.5941 30.3098 35.7673 30.2172C35.9404 30.1247 36.1354 30.0809 36.3315 30.0904C36.5277 30.1 36.7175 30.1626 36.8808 30.2716L58.2457 44.4972L36.8808 58.7312Z" fill="#F1F1F1" fill-opacity="0.9"/>
</svg>
