<svg width="61" height="31" viewBox="0 0 61 31" fill="none" xmlns="http://www.w3.org/2000/svg">
<path d="M37.9102 7.55457L55.1279 19.5574V8.00988H61V30.1292H60.4226L43.0273 17.8008V29.6744H37.1542V7.55504L37.9102 7.55457Z" fill="white"/>
<path d="M4.41668 0H10.522V8.83863H15.0067L14.9588 11.4896L13.2395 13.8179H10.6024C10.6024 13.8179 10.5182 19.3022 10.6024 21.1283C10.6024 21.1283 10.7293 23.8898 12.6195 25.1758C12.7234 25.2452 12.8115 25.3357 12.878 25.4416C12.9445 25.5474 12.9878 25.666 13.0052 25.7898C13.0225 25.9135 13.0135 26.0396 12.9787 26.1596C12.944 26.2796 12.8842 26.3909 12.8034 26.4862L10.1486 29.5829C10.0629 29.6829 9.95674 29.7633 9.83731 29.8186C9.71788 29.874 9.58794 29.9031 9.4563 29.9039C9.32465 29.9047 9.19437 29.8773 9.07426 29.8234C8.95415 29.7695 8.84702 29.6904 8.76011 29.5915C7.53541 28.1925 5.15878 25.1021 4.98068 22.0116C4.74129 17.8343 4.98068 13.7374 4.98068 13.7374H1.78056C1.35383 13.7374 0.943743 13.5718 0.636513 13.2757C0.329284 12.9795 0.148836 12.5758 0.1331 12.1493L0 8.51594H4.48802L4.41668 0Z" fill="white"/>
<path d="M31.3032 22.9457L35.6045 26.2071C33.051 29.0746 29.6477 30.5084 25.3946 30.5084C21.7074 30.5084 18.7453 29.4054 16.5081 27.1996C14.2707 24.9621 13.1521 22.1104 13.1524 18.6444C13.1524 15.4937 14.2868 12.705 16.5555 10.2783C18.8239 7.88443 21.6915 6.6875 25.1581 6.6875C27.1431 6.6875 28.9077 7.04993 30.4519 7.77479C31.9961 8.49966 33.1929 9.46071 34.0422 10.658C34.8716 11.8126 35.5176 13.0884 35.9573 14.4403C36.3786 15.7378 36.5939 17.0934 36.5955 18.4577C36.5989 19.2791 36.5517 20.1 36.4543 20.9157H19.7221C20.1004 22.2074 20.841 23.2237 21.9441 23.9645C23.0472 24.7053 24.3549 25.0754 25.8672 25.0748C28.1046 25.0735 29.9166 24.3638 31.3032 22.9457ZM19.5833 16.1864H29.7926C29.6353 14.9894 29.1311 14.0127 28.2802 13.2563C27.4293 12.4998 26.3736 12.1216 25.1131 12.1216C23.6953 12.1216 22.4743 12.4998 21.45 13.2563C20.4258 14.0127 19.8035 14.9894 19.5833 16.1864Z" fill="white"/>
</svg>
